<?xml version="1.0" encoding="UTF-8"?>
<svg fill="none" viewBox="0 0 137 21" xmlns="http://www.w3.org/2000/svg">
<path d="m0.54688 16v-1.709l1.5137-0.293v-10.205l-1.5137-0.29297v-1.7188h4.4043l6.1914 9.8632 0.0586-0.0097v-7.8418l-1.8164-0.29297v-1.7188h5.8886v1.7188l-1.5234 0.29297v12.207h-2.7539l-6.3281-9.7656-0.05859 0.00976v7.7539l1.8262 0.293v1.709h-5.8887zm20.791 0.2051c-1.0156 0-1.9011-0.2214-2.6563-0.6641-0.7487-0.4492-1.3313-1.0644-1.748-1.8457-0.4102-0.7812-0.6152-1.6732-0.6152-2.6758v-0.3906c0-1.0482 0.1953-1.9759 0.5859-2.7832 0.3906-0.8138 0.9408-1.4518 1.6504-1.9141 0.7161-0.46875 1.5592-0.69987 2.5293-0.69336 1.4258 0 2.5163 0.41992 3.2715 1.2598 0.7552 0.83333 1.1328 2.0052 1.1328 3.5156v1.5527h-6.211l-0.0195 0.0586c0.0521 0.6966 0.2832 1.2695 0.6934 1.7188 0.4101 0.4492 0.9928 0.6738 1.748 0.6738 0.5209 0 1.0059-0.0651 1.4551-0.1953 0.4557-0.1368 0.8984-0.3353 1.3281-0.5957l0.7715 1.7578c-0.4362 0.3515-0.9863 0.6445-1.6504 0.8789-0.6575 0.2278-1.4127 0.3418-2.2656 0.3418zm-2.041-6.5235h3.5254v-0.25391c0-0.63802-0.1335-1.1426-0.4004-1.5137-0.2604-0.3776-0.6901-0.5664-1.2891-0.5664-0.5729 0-1.0091 0.2181-1.3086 0.65429-0.2995 0.42969-0.485 0.97331-0.5566 1.6309l0.0293 0.04883zm10.967 6.3184-2.461-8.6133-1.289-0.23438v-1.7188h5.1074v1.709l-1.1133 0.21484 0.9766 4.1114 0.1953 0.8105h0.0586l0.2637-0.8105 2.1679-6.0352h1.9141l2.0996 6.1133 0.2734 0.8593h0.0586l0.2539-0.8593 1.1524-4.1797-1.2305-0.22461v-1.709h5v1.7188l-1.2305 0.23438-2.6855 8.6133h-2.4024l-1.9335-5.2344-0.3418-1.1621h-0.0586l-0.3418 1.1719-1.9043 5.2246h-2.5293zm18.867 0.2051c-0.7878 0-1.5235-0.0749-2.2071-0.2246-0.6771-0.1498-1.3281-0.3646-1.9531-0.6446l-0.0293-2.9882h1.9824l0.3809 1.5234c0.2213 0.1107 0.4622 0.1986 0.7226 0.2637 0.267 0.0651 0.5697 0.0976 0.9082 0.0976 0.6381 0 1.0873-0.1041 1.3477-0.3125 0.2604-0.2083 0.3906-0.4687 0.3906-0.7812 0-0.293-0.1399-0.5502-0.4199-0.7715-0.2799-0.2279-0.8301-0.4264-1.6504-0.5957-1.2565-0.2604-2.181-0.6641-2.7734-1.211-0.586-0.5468-0.8789-1.2467-0.8789-2.0996 0-0.57943 0.1465-1.1133 0.4394-1.6016 0.2995-0.48829 0.752-0.87566 1.3574-1.1621 0.612-0.29297 1.3933-0.43946 2.3438-0.43946 0.7943 0 1.5202 0.07813 2.1777 0.23438 0.6641 0.14974 1.2207 0.3483 1.67 0.5957l0.0293 2.8906h-1.9727l-0.3027-1.3867c-0.3776-0.26042-0.8529-0.39063-1.4258-0.39063-0.4948 0-0.8789 0.10417-1.1524 0.3125-0.2669 0.20182-0.4004 0.45899-0.4004 0.77149 0 0.27343 0.1172 0.52083 0.3516 0.74218 0.2409 0.21485 0.765 0.41342 1.5723 0.59571 1.3086 0.29948 2.2623 0.69985 2.8613 1.2012 0.599 0.4948 0.8984 1.1914 0.8984 2.0899 0 0.983-0.358 1.7773-1.0742 2.3828-0.7096 0.6054-1.7741 0.9082-3.1933 0.9082zm5.498-0.2051v-1.709l1.5137-0.293v-10.205l-1.5137-0.29297v-1.7188h11.035v3.8379h-2.1875l-0.127-1.6406h-4.3555v3.5742h4.8145v2.1973h-4.8145v4.0625h4.5899l0.1269-1.6992h2.168v3.8867h-11.25zm12.52 0v-1.709l1.3575-0.1758 3.0273-3.4082-2.8613-3.3886-1.2793-0.16602v-1.7188h5.2344v1.6406l-0.8204 0.12695 1.5332 2.0117 1.5332-2.0117-0.9082-0.12695v-1.6406h5.0489v1.7188l-1.1817 0.16602-2.705 3.2714 3.0175 3.5254 1.2989 0.1758v1.709h-5.42v-1.6309l0.918-0.1269-1.6309-2.0215-1.5917 2.0313 0.8984 0.1171v1.6309h-5.4688zm13.145 4.0625v-1.7187l1.3769-0.293v-10.605l-1.5234-0.29297v-1.7188h4.1406l0.1367 1.2305c0.3125-0.45573 0.6901-0.80729 1.1328-1.0547 0.4427-0.2474 0.9701-0.3711 1.5821-0.3711 0.8528 0 1.582 0.23438 2.1875 0.70313 0.6054 0.46224 1.0677 1.11 1.3867 1.9434 0.3255 0.83333 0.4883 1.8066 0.4883 2.9199v0.2051c0 1.0416-0.1628 1.9531-0.4883 2.7343-0.3255 0.7748-0.7943 1.3802-1.4063 1.8164-0.6054 0.4297-1.3346 0.6446-2.1875 0.6446-1.1132 0-1.9824-0.4037-2.6074-1.211v3.0567l1.377 0.293v1.7187h-5.5957zm5.9765-6.0449c0.7292 0 1.2565-0.2702 1.5821-0.8106 0.332-0.5403 0.498-1.2728 0.498-2.1972v-0.2051c0-0.99611-0.1693-1.8034-0.5078-2.4219s-0.8691-0.92773-1.5918-0.92773c-0.7943 0-1.3737 0.33854-1.7383 1.0156v4.6289c0.3581 0.612 0.944 0.918 1.7578 0.918zm5.8496 1.9824v-1.709l1.377-0.293v-11.221l-1.5234-0.29296v-1.7188h4.375v13.232l1.3769 0.293v1.709h-5.6055zm11.387 0.2051c-1.048 0-1.947-0.2279-2.695-0.6836-0.743-0.4557-1.3123-1.0873-1.7094-1.8945-0.3972-0.8138-0.5957-1.7481-0.5957-2.8028v-0.2051c0-1.0481 0.1985-1.9759 0.5957-2.7832 0.3971-0.8138 0.9664-1.4486 1.7094-1.9043 0.748-0.46224 1.64-0.69336 2.675-0.69336 1.042 0 1.934 0.22787 2.676 0.6836 0.749 0.45572 1.322 1.0905 1.719 1.9043 0.397 0.80729 0.596 1.7383 0.596 2.7929v0.2051c0 1.0547-0.199 1.989-0.596 2.8028-0.397 0.8072-0.967 1.4388-1.709 1.8945s-1.631 0.6836-2.666 0.6836zm0-2.1875c0.736 0 1.273-0.293 1.611-0.8789 0.345-0.586 0.518-1.3575 0.518-2.3145v-0.2051c0-0.93746-0.173-1.7024-0.518-2.2949s-0.888-0.88867-1.631-0.88867c-0.742 0-1.282 0.29622-1.621 0.88867-0.338 0.59245-0.508 1.3574-0.508 2.2949v0.2051c0 0.9636 0.17 1.7383 0.508 2.3242 0.339 0.5795 0.886 0.8692 1.641 0.8692zm6.465 1.9824v-1.709l1.367-0.293v-6.5527l-1.514-0.29297v-1.7188h4.17l0.108 1.3086 0.019 0.23437c0.521-1.1588 1.302-1.7383 2.344-1.7383 0.169 0 0.351 0.01302 0.547 0.03906 0.202 0.02605 0.384 0.06511 0.547 0.11719l-0.303 2.627-1.416-0.07812c-0.404-0.01953-0.733 0.04883-0.986 0.20508-0.248 0.15625-0.469 0.38086-0.665 0.67383v5.1757l1.368 0.293v1.709h-5.586zm13.3 0.2051c-1.015 0-1.901-0.2214-2.656-0.6641-0.748-0.4492-1.331-1.0644-1.748-1.8457-0.41-0.7812-0.615-1.6732-0.615-2.6758v-0.3906c0-1.0482 0.195-1.9759 0.586-2.7832 0.391-0.8138 0.941-1.4518 1.65-1.9141 0.716-0.46875 1.56-0.69987 2.53-0.69336 1.425 0 2.516 0.41992 3.271 1.2598 0.755 0.83333 1.133 2.0052 1.133 3.5156v1.5527h-6.211l-0.02 0.0586c0.052 0.6966 0.284 1.2695 0.694 1.7188 0.41 0.4492 0.993 0.6738 1.748 0.6738 0.521 0 1.006-0.0651 1.455-0.1953 0.456-0.1368 0.898-0.3353 1.328-0.5957l0.772 1.7578c-0.437 0.3515-0.987 0.6445-1.651 0.8789-0.657 0.2278-1.413 0.3418-2.266 0.3418zm-2.041-6.5235h3.526v-0.25391c0-0.63802-0.134-1.1426-0.401-1.5137-0.26-0.3776-0.69-0.5664-1.289-0.5664-0.573 0-1.009 0.2181-1.308 0.65429-0.3 0.42969-0.485 0.97331-0.557 1.6309l0.029 0.04883zm7.725 6.3184v-1.709l1.367-0.293v-6.5527l-1.513-0.29297v-1.7188h4.17l0.107 1.3086 0.019 0.23437c0.521-1.1588 1.303-1.7383 2.344-1.7383 0.169 0 0.352 0.01302 0.547 0.03906 0.202 0.02605 0.384 0.06511 0.547 0.11719l-0.303 2.627-1.416-0.07812c-0.403-0.01953-0.732 0.04883-0.986 0.20508-0.248 0.15625-0.469 0.38086-0.664 0.67383v5.1757l1.367 0.293v1.709h-5.586z" fill="#1A1B22"/>
</svg>
